<svg xmlns:dc="http://purl.org/dc/elements/1.1/" xmlns:cc="http://creativecommons.org/ns#" xmlns:rdf="http://www.w3.org/1999/02/22-rdf-syntax-ns#" xmlns:svg="http://www.w3.org/2000/svg" xmlns="http://www.w3.org/2000/svg" xmlns:sodipodi="http://sodipodi.sourceforge.net/DTD/sodipodi-0.dtd" xmlns:inkscape="http://www.inkscape.org/namespaces/inkscape" version="1.0" id="Layer_1" x="0px" y="0px" width="100" height="100" viewBox="0 0 100 100" enable-background="new 0 0 75.946 100" xml:space="preserve" inkscape:version="0.48.2 r9819" sodipodi:docname="fetus.svg"><metadata id="metadata15"><rdf:RDF><cc:Work rdf:about=""><dc:format>image/svg+xml</dc:format><dc:type rdf:resource="http://purl.org/dc/dcmitype/StillImage"/></cc:Work></rdf:RDF></metadata><defs id="defs13"/><sodipodi:namedview pagecolor="#ffffff" bordercolor="#666666" borderopacity="1" objecttolerance="10" gridtolerance="10" guidetolerance="10" inkscape:pageopacity="0" inkscape:pageshadow="2" inkscape:window-width="1362" inkscape:window-height="724" id="namedview11" showgrid="false" inkscape:zoom="5.36" inkscape:cx="50" inkscape:cy="50" inkscape:window-x="4" inkscape:window-y="0" inkscape:window-maximized="1" inkscape:current-layer="Layer_1" fit-margin-top="0" fit-margin-left="0" fit-margin-right="0" fit-margin-bottom="0"/>




<path style="font-size:medium;font-style:normal;font-variant:normal;font-weight:normal;font-stretch:normal;text-indent:0;text-align:start;text-decoration:none;line-height:normal;letter-spacing:normal;word-spacing:normal;text-transform:none;direction:ltr;block-progression:tb;writing-mode:lr-tb;text-anchor:start;baseline-shift:baseline;color:#428bca;fill:#428bca;stroke:none;stroke-width:0.704;marker:none;visibility:visible;display:inline;overflow:visible;enable-background:accumulate;font-family:Sans;-inkscape-font-specification:Sans" d="m 48.37462,2.8690462 c -3.05889,0.084 -6.18607,0.5146 -9.26817,1.24506 C 14.44965,9.9578557 -1.0357202,35.117956 5.0078698,60.625906 c 3.91867,16.53939 15.9271602,28.88421 30.5711402,33.96241 -0.92203,-2.2027 -0.66727,-4.83236 0.96832,-6.77865 l -0.0692,-0.0692 0.2075,-0.20752 0.0692,-0.0692 c -12.22079,-4.42415 -21.96594,-14.81008 -25.17624,-28.35966 -5.0307602,-21.23312 7.84551,-42.65262 29.257,-47.72721 21.41148,-5.0745998 42.55509,8.30241 47.58585,29.53553 0.0382,0.16145 0.033,0.32272 0.0692,0.48419 0.1376,-0.015 0.27709,-0.0624 0.41499,-0.0692 1.63291,-0.08 3.34452,0.50437 4.63409,1.66008 l 0,0.0692 c 2.58354,2.37898 2.8033,6.45517 0.48416,9.06125 l 0,0.0692 -5.39491,5.87943 c -2.96616,14.61037 -13.92804,26.96008 -29.46449,30.64226 -2.65307,0.62879 -5.26969,0.95759 -7.88486,1.03755 l -4.28826,5.67192 c -0.0272,0.0445 -0.041,0.0948 -0.0692,0.13835 l -0.0692,0 c -0.34055,0.51932 -0.79947,0.9263 -1.24498,1.31423 4.99671,0.54012 10.15565,0.3166 15.28557,-0.89921 24.6568,-5.84374 40.14217,-31.14217 34.09858,-56.65013 C 89.70399,17.002066 69.78683,2.2809662 48.37459,2.8689962 z M 36.13234,15.388796 c -0.330549,0.03304 -0.656567,0.102908 -0.96832,0.20752 -12.22785,5.38788 -20.63618,17.27151 -21.71796,31.05728 0.372375,1.259155 1.615592,2.27088 3.040656,2.474474 1.425063,0.203594 2.953222,-0.412195 3.737564,-1.506094 0.0847,-1.07874 0.2184,-2.13004 0.41499,-3.18183 0.0823,-0.42806 0.30692,-0.69784 0.41499,-1.10672 0.24573,-0.80864 0.54605,-1.60377 1.31414,-2.2826 1.02082,-0.90216 2.47802,-1.61139 3.66578,-1.79841 1.18776,-0.18702 1.953794,0.06031 2.07496,0.34585 0.742544,1.749884 -0.07603,2.641715 0.48416,4.77279 0.24911,2.44404 1.39647,4.63354 3.45827,5.53359 2.28176,0.99606 5.10442,0.17297 7.12404,-1.79843 0.0962,0.059 0.0757,0.008 0.2075,0.13835 0.62891,0.62126 1.00886,1.82456 0.89916,2.2826 -0.67645,2.82429 0.9543,4.84761 2.62828,6.2253 1.67398,1.37767 4.06594,2.48605 6.70905,1.45256 1.41239,-0.54326 2.2032,-2.3227 1.65998,-3.73517 -0.54322,-1.41248 -2.32256,-2.20334 -3.73494,-1.66008 0.19983,-0.0781 -0.3879,-0.007 -0.96831,-0.48419 -0.43532,-0.35826 -0.54253,-0.82632 -0.62249,-0.76087 0.60823,-3.0367 -0.80222,-5.66565 -2.55913,-7.40117 -0.90542,-0.89441 -1.93599,-1.6586 -3.3891,-1.93677 -1.45312,-0.27815 -3.51847,0.42591 -4.49576,1.8676 -0.60134,0.88709 -0.86709,0.68813 -1.17582,0.55335 -0.29181,-0.12738 -0.55017,-0.2771 -0.41499,-1.03755 2.4e-4,-0.023 2.4e-4,-0.0461 0,-0.0692 0.0242,-0.0455 0.0474,-0.0916 0.0692,-0.13834 0.08,-0.44198 -0.11365,-0.68708 -0.0692,-1.10671 0.1513,-1.34247 0.18923,-2.65577 -0.13833,-3.80434 -0.42697,-3.12561 -1.36025,-5.69439 -1.93663,-7.19367 -0.42927,-1.11661 -0.54776,-1.74458 -0.34583,-2.69762 0.16534,-0.78026 0.70305,-1.97064 1.93663,-3.59684 1.40766,-0.93979 2.91042,-1.79159 4.49576,-2.49012 1.891167,-0.571797 3.116049,-2.541517 2.672706,-4.29795 -0.443342,-1.756433 -2.492372,-3.051821 -4.471006,-2.82655 z m 36.24271,14.04149 c -3.84906,-0.16187 -7.5811,1.90743 -9.33734,5.60276 -2.34167,4.94703 -0.24568,10.8807 4.70325,13.21145 4.93122,2.34625 10.86451,0.22355 13.21061,-4.70355 2.33281,-4.94039 0.23682,-10.8652 -4.70325,-13.21145 -1.23281,-0.58434 -2.59026,-0.84525 -3.87327,-0.89921 z m -21.57963,9.19959 c -0.55152,0.0448 -1.1393,0.20973 -1.65998,0.48419 -2.09598,1.08459 -2.88945,3.65383 -1.7983,5.74111 l 5.04908,9.61461 c 0.54447,1.03589 1.43477,1.82332 2.55913,2.14427 l 5.11824,1.52173 -5.87907,11.82806 -3.66576,-7.47036 c -1.85475,-2.64948 -5.45411,-3.23604 -8.09237,-1.38339 0,0 -8.6977,5.83683 -11.82729,8.02371 -1.96541,1.39667 -2.44072,4.17952 -1.03749,6.15611 1.39217,1.97439 4.11009,2.41652 6.08657,1.03755 2.17345,-1.54719 7.41951,-4.84465 9.47567,-6.29445 0,0 0.49372,2.21359 1.24498,4.56521 1.02645,-1.3694 2.52484,-2.29864 4.21909,-2.55929 0.65925,-0.10155 1.34656,-0.10155 2.0058,0 l 8.71485,1.3834 c 0.71598,0.11366 1.26728,0.13414 2.14413,0.89921 0.0658,0.0573 0.14167,0.12818 0.20749,0.20751 -0.164,-0.006 -0.30833,-0.0155 -0.48415,0 L 51.6254,74.252376 c -0.13822,-0.007 -0.27676,-0.007 -0.41499,0 -1.21924,0.10016 -2.38328,0.74688 -3.11245,1.72925 l -9.8215,13.0731 c -1.6329,1.76235 -1.36166,4.91279 0.55333,6.36362 1.91498,1.45084 5.03966,0.87324 6.29406,-1.17588 l 8.29985,-10.99801 c 6.14336,2.76658 13.43504,0.15846 16.32305,-5.94861 1.05797,-2.20458 6.21937,-13.21477 7.19322,-15.28654 0.2656,-0.56136 0.46178,-1.14662 0.55332,-1.72925 l 4.56492,-0.13834 c 1.16898,-0.0255 2.25405,-0.58852 3.04328,-1.45257 l 7.26238,-8.0237 c 1.58454,-1.74253 1.476,-4.43733 -0.27666,-6.01779 -1.73645,-1.58994 -4.43138,-1.45401 -6.0174,0.27669 0,0 -4.39593,4.84144 -6.08657,6.70947 -2.09265,0.0601 -7.06355,0.18195 -10.58231,0.27669 -3.34502,-0.97343 -8.27338,-2.37894 -10.30566,-2.97431 -1.16198,-2.23557 -4.21909,-8.02371 -4.21909,-8.02371 -0.82169,-1.55715 -2.42619,-2.41686 -4.08076,-2.28261 z" id="path3820" inkscape:connector-curvature="0" sodipodi:nodetypes="csscccccssccccccccscccccsscccccsccccsscscccscscccscsccccccscccsccsccccsccccccccccccccccscccccccsccccccccccccccc"/></svg>